<?xml version="1.0" encoding="UTF-8"?>
<svg width="111px" height="30px" viewBox="0 0 111 30" version="1.1" xmlns="http://www.w3.org/2000/svg" xmlns:xlink="http://www.w3.org/1999/xlink">
    <g id="Logo" stroke="none" stroke-width="1" fill="none" fill-rule="evenodd">
        <g id="aware-logo" transform="translate(7.000000, 5.000000)" fill="#FFFFFF" fill-rule="nonzero">
            <path d="M48.0692101,4.07727785 C46.8158472,6.3181114 46.0926426,9.0712542 46.0926426,12.0540103 C46.0926426,12.6490975 46.1271169,13.2264323 46.1948936,13.7829652 C44.0564789,18.3293773 40.3344992,20 36.5452579,20 C33.4482265,20 31.7805942,18.5404339 31.2247168,16.4891519 L31.1453057,16.4891519 C29.7556121,18.7771203 27.2541637,20 24.9909484,20 C20.8615732,20 19.1939409,16.7258383 19.8292294,12.0315582 L21.4968617,0.35502959 L27.3732803,0.35502959 L25.9438812,10.6508876 C25.5865314,13.2938856 25.8644701,14.7140039 27.1350471,14.7140039 C28.2468019,14.7140039 30.3511951,13.2938856 30.946778,8.5601578 L31.9791219,0.35502959 L37.7364238,0.35502959 L36.4261413,10.887574 C36.0687915,13.6883629 36.4261413,14.7140039 37.5378962,14.7140039 C38.8084732,14.7140039 40.9525718,13.0571992 41.7466825,7.1005917 C42.0643267,4.81262327 42.0643267,2.87968442 41.7466825,0.35502959 L47.7422176,0.35502959 C47.9514236,1.54542974 48.0604211,2.79918488 48.0692101,4.07727785 Z M6.3131794,20 C2.14409867,20 0,16.5680473 0,12.1104536 C0,5.2465483 4.0896697,0 9.1719776,0 C11.1969597,0 12.7057699,0.63116371 13.7381137,1.69625247 L13.8572303,1.69625247 L14.0160524,0.35502959 L20.0115876,0.35502959 L17.6292557,19.6449704 L11.6337206,19.6449704 L11.9910703,16.8047337 L11.8719538,16.765286 C10.4425546,18.816568 8.4969836,20 6.3131794,20 Z M8.2190449,14.7534517 C10.2837325,14.7534517 12.6660644,12.0710059 13.3410584,7.2189349 L13.4204695,6.6666667 C12.5469478,5.7593688 11.4351929,5.2859961 10.2043215,5.2859961 C7.5837564,5.2859961 5.9955352,8.7968442 5.9955352,11.6765286 C5.9955352,13.530572 6.8690569,14.7534517 8.2190449,14.7534517 Z M54.0132911,20 C49.8442103,20 47.7001116,16.5680473 47.7001116,12.1104536 C47.7001116,5.2465483 51.7897813,0 56.8720893,0 C58.8970714,0 60.4058815,0.63116371 61.4382253,1.69625247 L61.5573419,1.69625247 L61.7161641,0.35502959 L67.7116992,0.35502959 L65.3293674,19.6449704 L59.3338322,19.6449704 L59.691182,16.8047337 L59.5720654,16.765286 C58.1426663,18.816568 56.1970953,20 54.0132911,20 Z M55.9191565,14.7534517 C57.9838442,14.7534517 60.366176,12.0710059 61.04117,7.2189349 L61.1205811,6.6666667 C60.2470594,5.7593688 59.1353046,5.2859961 57.9044331,5.2859961 C55.2838681,5.2859961 53.6956468,8.7968442 53.6956468,11.6765286 C53.6956468,13.530572 54.5691685,14.7534517 55.9191565,14.7534517 Z M69.3864928,0.35502959 L75.3423225,0.35502959 L74.9849727,2.99802761 L75.0643838,2.99802761 C76.5731939,1.02564103 78.4790594,0 80.6231581,0 L79.789342,6.5483235 C76.9305437,5.5226824 74.5482119,7.65286 73.8335123,12.2287968 L72.9599906,19.6449704 L67.004161,19.6449704 L69.3864928,0.35502959 Z M96.999668,5.3254438 C96.920257,10.2169625 91.2423664,12.0710059 85.52477,12.6627219 C85.8821198,14.3984221 87.1526968,15.1084813 88.3041572,15.1084813 C89.6144397,15.1084813 90.7659001,14.5956607 91.8379494,13.1755424 L96.284969,15.7790927 C94.220281,18.5798817 91.6394218,20 87.8276908,20 C82.9439105,20 79.6880569,16.9230769 79.7277625,11.913215 C79.7277625,5.3648915 83.8174322,0 90.3688448,0 C93.505582,0 97.039374,1.69625247 96.999668,5.3254438 Z M91.282072,6.1538462 C91.3217775,5.3648915 90.7659001,4.93096647 89.8526729,4.93096647 C88.145335,4.93096647 86.3982917,6.4299803 85.7232976,9.112426 C88.6218014,8.7968442 91.2423664,8.0473373 91.282072,6.1538462 Z" id="Combined-Shape"></path>
        </g>
    </g>
</svg>