<?xml version="1.0" encoding="UTF-8"?>
<svg width="109px" height="30px" viewBox="0 0 109 30" version="1.1" xmlns="http://www.w3.org/2000/svg" xmlns:xlink="http://www.w3.org/1999/xlink">

    <g id="Artboard" stroke="none" stroke-width="1" fill="none" fill-rule="evenodd">
        <g id="g70" transform="translate(55.000000, 15.500000) scale(-1, 1) rotate(-180.000000) translate(-55.000000, -15.500000) translate(5.000000, 5.000000)" fill="#FFF6F6">
            <path d="M9.71931808,8.43236816 C9.30892836,10.061827 8.43299773,10.877377 7.09098551,10.877377 C5.90739777,10.877377 5.05039157,10.061827 4.52050761,8.43236816 L9.71931808,8.43236816 Z M4.64865302,5.77403646 C4.91792058,4.9929464 5.3028975,4.42846115 5.80250237,4.07948674 C6.3410375,3.66979735 6.94607846,3.46522614 7.61654388,3.46522614 C8.36865468,3.46522614 9.09535268,3.64190127 9.79609718,3.99525154 L10.8985802,4.55207904 C11.0824175,4.6467069 11.3284351,4.70906283 11.6355515,4.73914683 C11.9091446,4.73914683 12.1762494,4.66585126 12.4368658,4.51871315 C12.6974822,4.37212202 12.9051102,4.17302063 13.0586684,3.92250295 C13.2127673,3.67198528 13.2895464,3.41326287 13.2895464,3.14469479 C13.2895464,2.41556801 12.7726392,1.75207904 11.7382841,1.15586885 C10.4779173,0.430570937 9.03317242,0.067375 7.40513099,0.067375 C6.33671191,0.067375 5.3272289,0.279056969 4.37668197,0.702967889 C3.42559433,1.12633183 2.61454746,1.74660923 1.94408204,2.56380008 C0.982180448,3.74418688 0.5015,5.26753128 0.5015,7.13492726 C0.5015,8.38040489 0.792936177,9.53508354 1.37634923,10.5984162 C1.95976228,11.6617489 2.76107659,12.5057419 3.78029216,13.1303951 C4.79950774,13.7550484 5.92037452,14.067375 7.14235181,14.067375 C8.3129628,14.067375 9.38787025,13.7730988 10.3665335,13.1845463 C11.3451967,12.5965409 12.1124471,11.8001353 12.6677438,10.7964236 C13.2230406,9.79271198 13.5015,8.7113289 13.5015,7.55172741 C13.5015,6.93309096 13.3738953,6.48237793 13.1197673,6.19904134 C12.8656393,5.91515777 12.4411914,5.77403646 11.8475051,5.77403646 L4.64865302,5.77403646 Z" id="path22" fill-rule="nonzero"></path>
            <path d="M17.3701153,7.33979988 C17.3701153,6.45333797 17.6118698,5.666111 18.095921,4.9775646 C18.5799723,4.2890182 19.2336853,3.944745 20.0565181,3.944745 C20.6001949,3.944745 21.0696107,4.11272371 21.4636815,4.44812675 C21.8577523,4.78408417 22.1553381,5.217059 22.356981,5.74760562 C22.5580817,6.27815225 22.6589032,6.81812342 22.6589032,7.36641037 C22.6589032,7.90582716 22.5580817,8.43803694 22.356981,8.96470286 C22.1553381,9.49081441 21.8577523,9.92212608 21.4636815,10.2575291 C21.0696107,10.5929322 20.6001949,10.7603565 20.0565181,10.7603565 C19.4906173,10.7603565 19.0043979,10.5962585 18.5973179,10.2669537 C18.1902379,9.93820325 17.8839793,9.51188104 17.6785421,8.98798704 C17.4725628,8.46353865 17.3701153,7.91414293 17.3701153,7.33979988 M22.6328847,12.9912025 L22.6328847,17.8925219 C22.6328847,18.510107 22.8052568,19.026794 23.1505431,19.4431373 C23.4952873,19.8594806 23.9717498,20.067375 24.5804726,20.067375 C25.1756442,20.067375 25.64506,19.8600349 25.987636,19.4459092 C26.330212,19.0317835 26.5015,18.5139877 26.5015,17.8919675 L26.5015,2.40743487 C26.5015,1.77155506 26.3378007,1.23601897 26.0098601,0.800272217 C25.6819195,0.363971075 25.216298,0.146097697 24.6124536,0.146097697 C24.1067204,0.146097697 23.7072291,0.27582383 23.4139797,0.534167327 C23.1201882,0.792510824 22.8795178,1.18446115 22.6908841,1.71057269 C22.271337,1.12791386 21.7851176,0.708244276 21.2322259,0.451563934 C20.6793343,0.195437978 20.0326679,0.067375 19.2911427,0.067375 C18.4347027,0.067375 17.6270473,0.291901001 16.8687184,0.740953002 C16.1103896,1.190005 15.4702278,1.79151293 14.9476911,2.54547679 C13.983383,3.97856249 13.5015,5.63839174 13.5015,7.52718207 C13.5015,8.46908251 13.7210305,9.42650572 14.1600915,10.3994517 C14.5991525,11.3718433 15.1699318,12.1712668 15.8729715,12.7982764 C16.9565306,13.770668 18.2010789,14.2574182 19.6060741,14.2574182 C20.6175405,14.2574182 21.6262967,13.8349767 22.6328847,12.9912025" id="path26" fill-rule="nonzero"></path>
            <path d="M40.5015,11.8974136 L40.5015,5.63617078 C40.5015,4.25458458 40.1870374,3.17346305 39.5570279,2.39390883 C38.9828627,1.64467672 38.2427913,1.069659 37.3362716,0.668304353 C36.4297519,0.267501014 35.4841955,0.067375 34.498518,0.067375 C33.5258528,0.067375 32.5840916,0.268603637 31.6732345,0.671612221 C30.7629196,1.07517212 30.0201373,1.64908722 29.4465142,2.39390883 C28.8165047,3.22638894 28.5015,4.30695915 28.5015,5.63617078 L28.5015,11.8974136 C28.5015,12.5159849 28.6728279,13.0325636 29.0154836,13.4465984 C29.3586816,13.8600819 29.8276646,14.067375 30.4235169,14.067375 C31.0231645,14.067375 31.4981114,13.8600819 31.8472733,13.4465984 C32.1964352,13.0325636 32.3710161,12.5159849 32.3710161,11.8974136 L32.3710161,6.11967082 C32.3710161,5.37870839 32.5721637,4.81692214 32.9750011,4.43320945 C33.3908507,4.00153268 33.8983283,3.78652126 34.498518,3.78652126 C35.0683459,3.78652126 35.5785343,4.00153268 36.0285411,4.43320945 C36.4308363,4.81692214 36.6319839,5.37870839 36.6319839,6.11967082 L36.6319839,11.8974136 C36.6319839,12.5159849 36.8049383,13.0325636 37.1497628,13.4465984 C37.4945872,13.8600819 37.9717029,14.067375 38.5800253,14.067375 C39.1758776,14.067375 39.6448606,13.8617359 39.9880585,13.449355 C40.3307143,13.0375254 40.5015,12.5203954 40.5015,11.8974136" id="path30"></path>
            <path d="M45.3627109,12.704626 C46.3585639,13.613309 47.5324649,14.067375 48.8822022,14.067375 C49.9051494,14.067375 50.7810134,13.8524651 51.5109001,13.4220944 C51.9040435,13.2044292 52.2711986,12.8478993 52.6123654,12.3525045 C53.3068636,12.9222912 53.9842205,13.3504577 54.6449891,13.6370042 C55.3040988,13.9241018 56.0317737,14.067375 56.8274607,14.067375 C57.6712539,14.067375 58.4520115,13.8717519 59.1713922,13.4794037 C59.889114,13.0876064 60.4575409,12.5453723 60.8755669,11.8527013 C61.292487,11.1605813 61.5015,10.3896611 61.5015,9.53994054 L61.5015,2.26276192 C61.5015,1.62629809 61.3300872,1.1016976 60.9867087,0.68785835 C60.6433302,0.2740191 60.1617156,0.067375 59.5418649,0.067375 C59.1343449,0.067375 58.7832252,0.166564168 58.4851881,0.364391453 C58.188257,0.56332084 57.9637615,0.830029491 57.8105959,1.16617056 C57.6579833,1.50120953 57.5816769,1.86710735 57.5816769,2.26441507 L57.5816769,8.66376955 C57.5816769,9.27323188 57.3870405,9.76532037 56.9983206,10.1372797 C56.6084947,10.5103412 56.1064212,10.6965964 55.4904411,10.6965964 C54.9087436,10.6965964 54.427129,10.5004223 54.0444914,10.108074 C53.6624068,9.71627683 53.4710881,9.23465832 53.4710881,8.66376955 L53.4710881,2.26441507 C53.4710881,1.6318086 53.2963576,1.10831021 52.9463438,0.691715707 C52.5974359,0.275121202 52.1191389,0.067375 51.5109001,0.067375 C50.9037671,0.067375 50.4199407,0.279529609 50.0627386,0.704940929 C49.7044306,1.1298012 49.5247237,1.64944223 49.5247237,2.26441507 L49.5247237,8.26480868 C49.5247237,8.97952174 49.3577344,9.56363573 49.023756,10.0165996 C48.6892246,10.4701145 48.1771981,10.6965964 47.4860176,10.6965964 C46.9181436,10.6965964 46.4359761,10.5015244 46.0411738,10.1113804 C45.6447126,9.72123629 45.4467585,9.23851568 45.4467585,8.66376955 L45.4467585,2.26441507 C45.4467585,1.63621701 45.2720281,1.11382072 44.9198025,0.695022013 C44.5681298,0.276223304 44.0820917,0.067375 43.4611351,0.067375 C42.8628492,0.067375 42.3862111,0.279529609 42.0323267,0.704940929 C41.6778893,1.1286991 41.5015,1.64889118 41.5015,2.26276192 L41.5015,11.7353275 C41.5015,12.3232988 41.6629598,12.8379804 41.9864323,13.2799232 C42.3099048,13.7224171 42.755578,13.9560627 43.3234519,13.9825132 C44.0837505,13.9825132 44.7633192,13.5565508 45.3627109,12.704626" id="path34"></path>
            <path d="M66.3413557,7.05452093 C66.3413557,6.52613648 66.4422324,6.00267486 66.6423498,5.4835891 C66.8424672,4.96450335 67.1401897,4.53785752 67.5344265,4.20474558 C67.9286633,3.87163364 68.3954222,3.70480419 68.9336127,3.70480419 C69.4985219,3.70480419 69.9881826,3.86944572 70.4042306,4.1981818 C70.8202786,4.52746486 71.1381763,4.95137578 71.3579238,5.47046154 C71.5782166,5.99009428 71.6878177,6.51793175 71.6878177,7.05452093 C71.6878177,7.59548596 71.5782166,8.12879325 71.3611955,8.65444279 C71.1436291,9.18009233 70.8257314,9.60728514 70.4075023,9.9365682 C69.9892732,10.2653043 69.4985219,10.4293988 68.9336127,10.4293988 C68.1238732,10.4293988 67.488623,10.0804244 67.0300433,9.38138164 C66.5709182,8.68233886 66.3413557,7.90671862 66.3413557,7.05452093 M62.5015,7.05123904 C62.5015,7.97618531 62.6470895,8.86393683 62.9382686,9.71285263 C63.2289024,10.5628624 63.6651257,11.3051167 64.2469385,11.9407096 C64.8587417,12.6063865 65.583963,13.1276602 66.422057,13.5034367 C67.2606963,13.8797602 68.1255091,14.067375 69.0175857,14.067375 C69.897121,14.067375 70.7608431,13.8786663 71.6098428,13.5001548 C72.4593877,13.1216434 73.1829731,12.6020107 73.7822349,11.9407096 C74.3640477,11.296365 74.7959088,10.5552047 75.0778181,9.71613452 C75.3602727,8.87761137 75.5015,7.98931288 75.5015,7.05123904 C75.5015,6.13066861 75.3602727,5.25385673 75.0778181,4.42189737 C74.7959088,3.58939102 74.3640477,2.84713667 73.7822349,2.19404036 C73.1873353,1.53273933 72.4686574,1.01255961 71.6262011,0.63459516 C70.7831996,0.256083732 69.9227491,0.067375 69.0437591,0.067375 C68.142958,0.067375 67.2688755,0.254989769 66.422057,0.631313269 C65.5757838,1.00708979 64.8505625,1.52836347 64.2469385,2.19404036 C63.0833128,3.43514214 62.5015,5.05420837 62.5015,7.05123904" id="path38" fill-rule="nonzero"></path>
            <path d="M80.3521852,7.14928768 C80.3521852,6.2716716 80.5933282,5.48664042 81.0767005,4.79363973 C81.5595297,4.10063903 82.2128971,3.75413869 83.0368025,3.75413869 C83.5864348,3.75413869 84.0584017,3.92212205 84.4537894,4.25753439 C84.8480909,4.59350113 85.1468041,5.02537916 85.3482998,5.55372289 C85.5503386,6.08206661 85.651358,6.61373675 85.651358,7.14928768 C85.651358,8.01747895 85.4194479,8.80472774 84.9561708,9.51103404 C84.4923506,10.2173403 83.8525612,10.5699391 83.0368025,10.5699391 C82.4703336,10.5699391 81.9842457,10.4036189 81.5785388,10.0704242 C81.173375,9.73667507 80.8670582,9.30812344 80.6612176,8.78421492 C80.4548339,8.25975199 80.3521852,7.71533065 80.3521852,7.14928768 Z M80.3777116,13.1024408 C81.4080007,13.8725032 82.4192807,14.2572572 83.4104656,14.2572572 C84.2604405,14.2572572 85.0577333,14.0709786 85.8023439,13.6984214 C86.5469545,13.3264187 87.1976063,12.8158157 87.753756,12.1671671 C88.3093626,11.5185185 88.7395097,10.7839377 89.0447403,9.96231609 C89.3488847,9.14069447 89.5015,8.30022323 89.5015,7.44145677 C89.5015,5.03591277 88.825865,3.14318928 87.4729656,1.7627319 C86.3916237,0.632309165 85.080001,0.067375 83.5391838,0.067375 C82.1656461,0.067375 81.0924509,0.589065922 80.3195983,1.63189336 C79.9204088,0.641179574 79.3235254,0.146099879 78.5300344,0.146099879 C77.9288061,0.146099879 77.4410889,0.344575277 77.0647102,0.740417273 C76.6894178,1.13736807 76.5015,1.64020937 76.5015,2.24894118 L76.5015,17.8919072 C76.5015,18.2822052 76.576993,18.6453376 76.7268927,18.9829675 C76.8773356,19.3205975 77.0994696,19.5856009 77.3938379,19.7785323 C77.6876631,19.9709093 78.031998,20.067375 78.4268426,20.067375 C79.0280709,20.067375 79.5032965,19.8594748 79.8530625,19.44312 C80.2033717,19.0273196 80.3777116,18.5100638 80.3777116,17.8924616 L80.3777116,13.1024408 Z" id="path42" fill-rule="nonzero"></path>
            <path d="M91.5015,2.57044484 C91.5015,2.70551775 91.5510202,2.82140416 91.6504443,2.91963901 C91.7494846,3.01864131 91.8677188,3.067375 92.004763,3.067375 C92.0922869,3.067375 92.1744367,3.04473494 92.2508282,2.99983855 C92.3272198,2.95494215 92.3882562,2.89431284 92.4335537,2.81718314 C92.4788512,2.73890224 92.5015,2.65755152 92.5015,2.57044484 C92.5015,2.43422074 92.4531315,2.31564822 92.3556267,2.21664591 C92.2585058,2.11687615 92.1414232,2.067375 92.004763,2.067375 C91.8665672,2.067375 91.7487169,2.11687615 91.6496766,2.21587845 C91.5506363,2.3141133 91.5015,2.43268582 91.5015,2.57044484" id="path64"></path>
            <path d="M93.5604319,2.7326321 L93.5604319,5.62657662 C93.5604319,5.8138229 93.5987376,5.97062263 93.675349,6.09545348 C93.7519604,6.22129922 93.8569328,6.28371465 93.9898978,6.28371465 C94.1239678,6.28371465 94.2300451,6.22129922 94.3081298,6.09545348 C94.3862145,5.97062263 94.4252569,5.8138229 94.4252569,5.62657662 L94.4252569,2.7326321 C94.4252569,2.54234117 94.3865829,2.38401911 94.3096031,2.25766593 C94.2322551,2.13080531 94.1258094,2.067375 93.9898978,2.067375 C93.8587744,2.067375 93.7541703,2.1318202 93.676454,2.26071059 C93.5987376,2.3885861 93.5604319,2.54640071 93.5604319,2.7326321 M93.5015,7.36964158 C93.5015,7.55841018 93.5504871,7.72231411 93.6484613,7.86033846 C93.7468039,7.99836282 93.8642993,8.067375 94.0013158,8.067375 C94.0911869,8.067375 94.1747965,8.03591357 94.2514079,7.97248325 C94.3280193,7.90905294 94.3887928,7.8238026 94.4337284,7.71673224 C94.4786639,7.60966187 94.5015,7.49396499 94.5015,7.36964158 C94.5015,7.18188786 94.4525129,7.01899882 94.3541703,6.88046702 C94.2561961,6.74142777 94.1383324,6.6724156 94.0013158,6.6724156 C93.8642993,6.6724156 93.7468039,6.74142777 93.6484613,6.88046702 C93.5504871,7.01899882 93.5015,7.18188786 93.5015,7.36964158" id="path68" fill-rule="nonzero"></path>
            <path d="M96.7461141,6.55116493 C96.9260978,6.73360302 97.1049906,6.86519771 97.2827926,6.94594899 C97.46114,7.02789659 97.6711209,7.067375 97.9143716,7.067375 C98.3654215,7.067375 98.7401147,6.9274061 99.039542,6.64567384 C99.2178894,6.47400259 99.3400601,6.28259213 99.4044179,6.069648 C99.4687757,5.85730202 99.5015,5.60009422 99.5015,5.29862276 L99.5015,2.85096155 C99.5015,2.62665243 99.4436871,2.44002723 99.3296974,2.29168413 C99.2157078,2.14214471 99.0575404,2.067375 98.8562859,2.067375 C98.6621218,2.067375 98.5072268,2.14334102 98.3926917,2.29527307 C98.2781567,2.44720512 98.2203437,2.63143769 98.2203437,2.85096155 L98.2203437,4.97621577 C98.2203437,5.22983462 98.155986,5.44158244 98.026725,5.61086106 C97.897464,5.77894337 97.7174804,5.8632836 97.4862287,5.8632836 C97.3542407,5.8632836 97.234797,5.82440335 97.1268068,5.74724101 C97.0188166,5.66888236 96.9348242,5.5665974 96.8731935,5.44038613 C96.8126535,5.31297854 96.7821109,5.17719675 96.7821109,5.03244259 L96.7821109,2.85096155 C96.7821109,2.62665243 96.7248433,2.44122355 96.6108537,2.29168413 C96.4968641,2.14214471 96.3386966,2.067375 96.1374422,2.067375 C95.9427326,2.067375 95.788383,2.14334102 95.6733026,2.29527307 C95.5587675,2.44600881 95.5015,2.63143769 95.5015,2.85096155 L95.5015,6.21559847 C95.5015,6.43811313 95.5544043,6.62832727 95.6618491,6.78624089 C95.7687484,6.94475268 95.9209164,7.02789659 96.118353,7.03686896 C96.4161441,7.03686896 96.6250342,6.87476823 96.7461141,6.55116493" id="path72"></path>
        </g>
    </g>
</svg>