<?xml version="1.0" encoding="UTF-8"?>
<svg width="160px" height="27px" viewBox="0 0 160 27" version="1.1" xmlns="http://www.w3.org/2000/svg" xmlns:xlink="http://www.w3.org/1999/xlink">

    <defs>
        <path d="M19.1413683,19.6175138 C17.5837562,21.6793444 15.1875377,23 12.5,23 C7.80557963,23 4,18.9705627 4,14 C4,12.5971805 4.30311908,11.2693228 4.84379009,10.085851 C4.32143661,9.54598935 4,8.81053245 4,8 C4,6.34314575 5.34314575,5 7,5 C7.63997035,5 8.23313731,5.20038917 8.7201774,5.54184404 C8.74006866,5.56003872 8.76225077,5.57596803 8.78633718,5.58957812 C8.86863327,5.65066726 8.94769243,5.71587101 9.0232104,5.78488513 C9.41529627,5.59856455 9.8231408,5.4427887 10.2440424,5.32041811 C10.0897264,5.08466002 10,4.80280837 10,4.5 C10,3.67157288 10.6715729,3 11.5,3 C12.3284271,3 13,3.67157288 13,4.5 C13,4.67918581 12.968581,4.85103332 12.9109517,5.01033399 C15.6921548,5.15051436 18.1232232,6.7059762 19.5759309,9.01153909 L15.5231063,9.02210987 C12.4800112,9.02993545 10.0072163,11.7177082 10.0000167,15.0253616 C9.99261169,18.3330155 12.4535673,21.0079198 15.4967654,20.9999824 C16.8324515,20.9964986 18.1183146,20.4779772 19.1413683,19.6175138 Z M20.9462867,15.0174321 C20.0810249,15.1059598 19.4929762,15.2546944 19.1821406,15.4636358 C18.8713541,15.6725442 18.4935097,16.0738436 18.0486073,16.6675339 C18.0254467,16.709167 18.0014488,16.7501906 17.9766391,16.7905769 C17.4429479,17.6593435 16.5336228,18.2332022 15.5027649,18.2359612 C13.8642385,18.2401233 12.5391321,16.7998159 12.5429613,15.0188405 C12.5468934,13.2377533 13.8783746,11.7905169 15.5170039,11.7862429 L20.7376831,11.7726261 C20.9089638,12.4849531 21,13.2312198 21,14 C21,14.3439928 20.9817733,14.683478 20.9462867,15.0174321 Z M8,5 C7.44771525,5 7,4.55228475 7,4 C7,3.44771525 7.44771525,3 8,3 C8.55228475,3 9,3.44771525 9,4 C9,4.55228475 8.55228475,5 8,5 Z M6.5,3 C6.22385763,3 6,2.77614237 6,2.5 C6,2.22385763 6.22385763,2 6.5,2 C6.77614237,2 7,2.22385763 7,2.5 C7,2.77614237 6.77614237,3 6.5,3 Z M6.5,1 C6.22385763,1 6,0.776142375 6,0.5 C6,0.223857625 6.22385763,0 6.5,0 C6.77614237,0 7,0.223857625 7,0.5 C7,0.776142375 6.77614237,1 6.5,1 Z M5.5,1 C5.22385763,1 5,0.776142375 5,0.5 C5,0.223857625 5.22385763,0 5.5,0 C5.77614237,0 6,0.223857625 6,0.5 C6,0.776142375 5.77614237,1 5.5,1 Z M3.5,1 C3.22385763,1 3,0.776142375 3,0.5 C3,0.223857625 3.22385763,0 3.5,0 C3.77614237,0 4,0.223857625 4,0.5 C4,0.776142375 3.77614237,1 3.5,1 Z M2.5,9 C2.22385763,9 2,8.77614237 2,8.5 C2,8.22385763 2.22385763,8 2.5,8 C2.77614237,8 3,8.22385763 3,8.5 C3,8.77614237 2.77614237,9 2.5,9 Z M1.5,1 C1.22385763,1 1,0.776142375 1,0.5 C1,0.223857625 1.22385763,0 1.5,0 C1.77614237,0 2,0.223857625 2,0.5 C2,0.776142375 1.77614237,1 1.5,1 Z M1,5 C0.44771525,5 0,4.55228475 0,4 C0,3.44771525 0.44771525,3 1,3 C1.55228475,3 2,3.44771525 2,4 C2,4.55228475 1.55228475,5 1,5 Z M5,5 C4.44771525,5 4,4.55228475 4,4 C4,3.44771525 4.44771525,3 5,3 C5.55228475,3 6,3.44771525 6,4 C6,4.55228475 5.55228475,5 5,5 Z M1,9 C0.44771525,9 0,8.32842712 0,7.5 C0,6.67157288 0.44771525,6 1,6 C1.55228475,6 2,6.67157288 2,7.5 C2,8.32842712 1.55228475,9 1,9 Z M15.5,16 C16.3284271,16 17,15.3284271 17,14.5 C17,13.6715729 16.3284271,13 15.5,13 C14.6715729,13 14,13.6715729 14,14.5 C14,15.3284271 14.6715729,16 15.5,16 Z" id="path-1"></path>
    </defs>
    <g id="Logo" stroke="none" stroke-width="1" fill="none" fill-rule="evenodd">
        <g id="Group" transform="translate(5.000000, 2.000000)">
            <g id="Group-2">
                <text id="ELEGANT" font-family="Avenir-Heavy, Avenir" font-size="20" font-weight="600" letter-spacing="5.19999981" fill="#FFFFFF">
                    <tspan x="26" y="20">ELEGAN</tspan>
                    <tspan x="137.939999" y="20">T</tspan>
                </text>
                <mask id="mask-2" fill="white">
                    <use xlink:href="#path-1"></use>
                </mask>
                <use id="Combined-Shape" fill="#FFFFFF" fill-rule="nonzero" xlink:href="#path-1"></use>
            </g>
        </g>
    </g>
</svg>