<?xml version="1.0" encoding="UTF-8"?>
<svg width="123px" height="27px" viewBox="0 0 123 27" version="1.1" xmlns="http://www.w3.org/2000/svg" xmlns:xlink="http://www.w3.org/1999/xlink">

    <g id="Logo" stroke="none" stroke-width="1" fill="none" fill-rule="evenodd">
        <g id="Group" transform="translate(5.000000, 4.000000)" fill="#FFFFFF">
            <path d="M7.49999997,8.93635384 C7.49999997,10.395685 6.38882181,11.6168285 4.99999998,11.6168285 C3.58341378,11.6168285 2.49979879,10.395685 2.49979879,8.93635384 L2.49979879,5.06407767 C2.49979879,3.60474648 3.61097695,2.38317153 4.99999998,2.38317153 C6.38882181,2.38317153 7.49999997,3.60474648 7.49999997,5.06407767 L7.49999997,8.93635384 Z M10,8.93635384 L10,5.06407767 C10,2.05523194 8.02772413,0 5.00000002,0 C1.97227591,0 0,2.02589 0,5.06407767 L0,8.93635384 C0,11.9745416 1.97227587,14 4.99999998,14 C8.02772409,14 10,11.9745416 10,8.93635384 Z" id="Shape" fill-rule="nonzero"></path>
            <path d="M19.4999497,8.88126103 C19.4999497,10.260655 18.4167153,11.4149749 16.9998994,11.4149749 C15.6110497,11.4149749 14.5000504,10.260655 14.5000504,8.88126103 L14.5000504,5.78567754 C14.5000504,4.40587584 15.6110497,3.25155593 16.9998994,3.25155593 C18.4167153,3.25155593 19.4999497,4.40587584 19.4999497,5.78567754 L19.4999497,8.88126103 Z M22,8.88126103 L22,5.78567754 C22,2.94289458 20.0001207,1.00000004 17.1944551,1.00000004 C15.555721,1.00000004 14.7779007,1.92924591 14.4169567,1.92924591 C14.3056959,1.92924591 14.2221999,1.81630116 14.2221999,1.61936137 L14.2221999,1.28215805 C14.2221999,1.08521827 14.1389051,1 13.9445506,1 L12.2778504,1 C12.083496,1 12,1.08521827 12,1.28215805 L12,19.7178419 C12,19.9151895 12.083496,20 12.2778504,20 L14.2221999,20 C14.4169567,20 14.5000503,19.9151895 14.5000503,19.7178419 L14.5000503,13.0471694 C14.5000503,12.8498219 14.583345,12.7376926 14.7221697,12.7376926 C14.9722552,12.7376926 15.8056053,13.6665308 17.4165744,13.6665308 C20.0001207,13.6665308 22,11.640049 22,8.88126103 Z" id="Shape" fill-rule="nonzero"></path>
            <path d="M30.2222446,5.36224376 L25.7779566,5.36224376 C25.5278661,5.36224376 25.4998994,5.24271842 25.4998994,4.91477883 C25.4998994,3.60474644 26.6666533,2.38317148 28.0004024,2.38317148 C29.3057825,2.38317148 30.5003018,3.57497298 30.5003018,4.85523191 C30.5003018,5.21294496 30.4727375,5.36224376 30.2222446,5.36224376 Z M33,7.14865155 L33,5.06407767 C33,2.35382954 30.7777554,0 28.0004024,0 C25.2224458,0 23,2.35382954 23,5.06407767 L23,8.93635384 C23,11.9745416 24.9723552,14 28.0004024,14 C29.4725765,14 30.6391292,13.58274 31.4724961,12.7490831 C32.3056617,11.9149946 32.6392499,11.1404531 32.6392499,10.9320388 C32.6392499,10.8427185 32.583719,10.7831715 32.4724558,10.7236246 L30.7222244,9.77044225 C30.6672971,9.74066879 30.6111625,9.71089534 30.5558327,9.71089534 C30.3890386,9.71089534 30.1389481,10.1872707 29.5277051,10.9622438 C29.2220836,11.3488673 28.6669751,11.6168285 28.0004024,11.6168285 C26.5835579,11.6168285 25.4998993,10.395685 25.4998993,8.9363538 L25.4998993,7.74498377 C25.4998993,7.53656953 25.583397,7.44681764 25.7779566,7.44681764 L32.7225463,7.44681764 C32.9169047,7.44681768 33,7.3570658 33,7.14865155 Z" id="Shape" fill-rule="nonzero"></path>
            <path d="M44.7219596,14 L42.7778895,14 C42.5835429,14 42.5002515,13.9133752 42.5002515,13.7112506 L42.5002515,5.91166909 C42.5002515,4.49554162 41.4166583,3.31083216 40.0001006,3.31083216 C38.6113067,3.31083216 37.4999497,4.49554162 37.4999497,5.91166909 L37.4999497,13.7112506 C37.4999497,13.9133752 37.4168595,14 37.2225128,14 L35.2780404,14 C35.0834926,14 35,13.9133752 35,13.7112506 L35,1.28958637 C35,1.08746179 35.0834926,1 35.2780404,1 L36.9448748,1 C37.1394226,1 37.2225128,1.08746179 37.2225128,1.28958637 L37.2225128,1.63566718 C37.2225128,1.83779176 37.3056031,1.95370999 37.4168595,1.95370999 C37.7775878,1.95370999 38.5555779,1.00000004 40.1944472,1.00000004 C43.0002012,1.00000004 45,2.99404478 45,5.91166913 L45,13.7112507 C45,13.9133752 44.9163062,14 44.7219596,14 Z" id="Path"></path>
            <path d="M52.8896328,4.34894804 C52.8896328,5.50249271 53.7909719,6.0372809 55.7966144,6.45916032 C59.1396328,7.16270029 61,7.5845797 61,9.94832721 C61,12.3397924 59.1973219,14 56.3779265,14 L55.4765875,14 C52.7734125,14 51,12.4241683 51,11.5518766 C51,11.4679083 51.0587418,11.4116577 51.2040172,11.3549995 L52.3373758,10.820619 C52.3956965,10.792086 52.4533856,10.792086 52.4826512,10.792086 C52.5698164,10.792086 52.6285582,10.8483366 52.7155129,10.9331201 C53.4711555,11.7487536 54.0524676,12.5089518 55.4765875,12.5089518 L56.3779266,12.5089518 C58.0060637,12.5089518 59.0524676,11.6085347 59.0524676,10.4545825 C59.0524676,9.41353901 58.1513391,8.79437491 56.2033856,8.40062083 C52.8319437,7.72479856 51,7.38770264 51,4.91104631 C51,2.60395696 52.7734125,1 55.4765875,1 L56.3779265,1 C59.0234125,1 60.8252484,2.54811401 60.8252484,3.39228043 C60.8252484,3.47665629 60.7380832,3.53249928 60.6218629,3.58915749 L59.5169277,4.12353806 C59.4596597,4.15207097 59.4301835,4.15207097 59.4007074,4.15207097 C59.3135422,4.15207097 59.2562742,4.09541277 59.1682667,4.01062927 C58.3547245,3.16687045 57.6864578,2.49186339 56.3779265,2.49186339 L55.4765875,2.49186339 C53.7909719,2.49186343 52.8896328,3.19540341 52.8896328,4.34894804 Z" id="Path"></path>
            <path d="M70.0464555,9.38500612 C70.0464555,11.017496 68.6952504,12.3964507 66.9719019,12.3964507 C65.2477209,12.3964507 63.9252383,11.017496 63.9252383,9.38500612 L63.9252383,5.58686859 C63.9252383,3.926661 65.2185822,2.60395697 66.9719019,2.60395697 C68.6952504,2.60395697 70.0464555,3.98291158 70.0464555,5.58686859 L70.0464555,9.38500612 Z M72,9.38500612 L72,5.58686859 C72,2.85708461 70.017733,1 66.9719019,1 C63.9252383,1 62,2.80083403 62,5.58686859 L62,9.38500612 C62,12.1714483 63.9252383,14 66.9719019,14 C70.017733,14 72,12.1429154 72,9.38500612 Z" id="Shape" fill-rule="nonzero"></path>
            <path d="M82.7127753,14 L81.6496275,14 C81.4485701,14 81.3619864,13.9118052 81.3619864,13.7060173 L81.3619864,12.4410396 C81.3619864,12.2352517 81.2475128,12.1180847 81.1322066,12.1180847 C80.8737044,12.1180847 80.5868959,12.588457 80.0694751,13.1180519 C79.4946093,13.676193 78.6325188,14 77.6842609,14 C75.069267,14 73,12.0294638 73,9.17655347 L73,1.29398268 C73,1.08819479 73.0865837,1 73.287641,1 L74.6380136,1 C74.8394872,1 74.9252383,1.08819479 74.9252383,1.29398268 L74.9252383,9.17655347 C74.9252383,10.8825052 76.2764434,12.3238726 77.9719019,12.3238726 C79.7531116,12.3238726 81.075178,10.9119035 81.075178,9.17655347 L81.075178,1.29398268 C81.075178,1.08819479 81.1609291,1 81.3619864,1 L82.7127753,1 C82.9138326,1 83,1.08819479 83,1.29398268 L83,13.7060173 C83,13.9118052 82.9138326,14 82.7127753,14 Z" id="Path"></path>
            <path d="M91.7553749,3.0881293 C91.5386733,3.0881293 91.1855007,3.00036054 90.7237808,3.00036054 C89.0680388,3.00036054 87.8460933,4.35268095 87.8460933,6.08803095 L87.8460933,13.7060173 C87.8460933,13.9118052 87.765076,14 87.5747247,14 L86.2709754,14 C86.0810173,14 86,13.9118052 86,13.7060173 L86,1.29398268 C86,1.08819479 86.0810173,1 86.2709754,1 L87.2762192,1 C87.4661773,1 87.5475878,1.08819479 87.5475878,1.29398268 L87.5475878,2.76474831 C87.5475878,2.9705362 87.6561353,3.08812926 87.7650761,3.08812926 C88.062795,3.08812926 88.4977714,2.35274644 89.4750918,1.49977058 C89.7735973,1.23518616 90.3434715,1 90.7237808,1 L91.7286314,1 C91.9189827,1 92,1.08819479 92,1.29398268 L92,2.79457261 C92,3.02933277 91.9453329,3.0881293 91.7553749,3.0881293 Z" id="Path"></path>
            <path d="M101.972263,11.5241589 C101.972263,12.4241683 100.303659,14 97.7327962,14 C94.8330471,14 93,12.1714483 93,9.38500612 L93,5.58686859 C93,2.80083403 94.8330471,1 97.7327962,1 C100.276318,1 102,2.49186344 102,3.41999814 C102,3.50396641 101.91758,3.5891575 101.808612,3.64540812 L100.65949,4.2360393 C100.604808,4.26416459 100.577467,4.26416459 100.549729,4.26416459 C100.468102,4.26416459 100.41342,4.2360393 100.331396,4.15207103 C99.5107648,3.36374756 98.9635451,2.60395701 97.7327962,2.60395701 C96.063796,2.60395701 94.8330471,3.92666104 94.8330471,5.58686863 L94.8330471,9.38500616 C94.8330471,11.017496 96.0915335,12.3964507 97.7327962,12.3964507 C98.3893805,12.3964507 99.0455686,12.1151978 99.5381059,11.6362525 C100.112271,11.0737466 100.358341,10.6799925 100.522388,10.6799925 C100.549729,10.6799925 100.604808,10.6799925 100.65949,10.7081178 L101.808612,11.298749 C101.945318,11.3549996 101.972263,11.4116578 101.972263,11.5241589 Z" id="Path"></path>
            <path d="M111.045623,5.9806227 C111.045623,6.17749976 110.959872,6.26228326 110.758398,6.26228326 L105.212879,6.26228326 C105.011406,6.26228326 104.925655,6.17749976 104.925655,5.9806227 L104.925655,5.58686857 C104.925655,3.92666099 106.218582,2.60395696 107.971069,2.60395696 C109.695667,2.60395696 111.045623,3.98291157 111.045623,5.58686857 L111.045623,5.9806227 Z M113,7.30332673 L113,5.58686857 C113,3.16687045 110.758398,1 107.971069,1 C106.505807,1 105.299047,1.50666291 104.350373,2.49186343 C103.488698,3.39228047 103,4.5458251 103,5.58686862 L103,9.38500614 C103,12.1714483 104.925655,14 107.971069,14 C110.672647,14 112.42555,12.4241683 112.42555,11.5241589 C112.42555,11.4116577 112.396828,11.3549996 112.253216,11.2987489 L111.045623,10.7081178 C110.988594,10.6799925 110.931566,10.6799925 110.902427,10.6799925 C110.730092,10.6799925 110.47159,11.0737466 109.867585,11.6362524 C109.350997,12.1151977 108.660825,12.3964506 107.971069,12.3964506 C106.247305,12.3964506 104.925655,11.017496 104.925655,9.3850061 L104.925655,7.86624022 C104.925655,7.66936315 105.011406,7.58457966 105.212879,7.58457966 L112.712775,7.58457966 C112.913833,7.5845797 113,7.50020379 113,7.30332673 Z" id="Shape" fill-rule="nonzero"></path>
        </g>
    </g>
</svg>