<?xml version="1.0" encoding="UTF-8"?>
<svg width="120px" height="120px" viewBox="0 0 120 120" version="1.1" xmlns="http://www.w3.org/2000/svg" xmlns:xlink="http://www.w3.org/1999/xlink">
    <g id="codeigniter" stroke="none" stroke-width="1" fill="none" fill-rule="evenodd">
        <g id="codeigniter-plain" transform="translate(21.000000, 13.000000)" fill="#FFB944">
            <path d="M59.1851307,35.8974938 L58.6047225,35.5800476 C58.9102408,36.3192219 59.0097831,36.9495137 58.9990632,37.5130958 C59.107794,37.0568627 59.1797708,36.5860608 59.1889593,36.0968562 C59.1958507,36.7049114 59.1223425,37.2761613 58.9799205,37.8075386 L58.9990632,37.512329 C58.8313727,38.2192986 58.5511228,38.8741273 58.1766906,39.4737479 L58.3566325,39.2820534 C56.1513876,42.9771581 50.1352038,43.7845756 47.1680775,39.9683199 C42.405361,33.8417612 47.2660883,27.2367327 47.9468046,20.7490213 C48.7975084,12.618104 43.7063024,4.72412123 37.3930232,0 C40.8701124,5.63275354 36.2888693,13.0858388 32.6234153,17.2509787 C29.0689894,21.2911336 24.7473219,24.6634247 20.8238237,28.3316922 C16.6101214,32.2752331 12.5564525,36.4250373 9.09391169,41.0510109 C2.16500158,50.3090924 -2.07779772,61.9533879 1.04017354,73.5049033 C4.15508196,85.0495177 14.1399408,92.3975544 25.4157868,94.9953993 C19.7273269,92.5325074 14.4041108,86.2748295 14.3918594,79.8722305 C14.3773109,72.8899471 18.7946921,66.9635175 24.290193,63.0690504 C23.6293853,65.567981 23.2687359,67.8537471 24.9050582,70.0889059 C26.4272897,72.167642 29.0919607,73.1767222 31.6073181,72.6284757 C37.4872055,71.3410549 37.7559697,64.8686791 34.2712233,61.0976633 C30.8247625,57.3649865 27.490861,53.1454054 28.8017566,47.7304169 C29.4587358,45.0160216 31.1233894,42.4749183 33.2329205,40.6561201 C31.6111467,44.9217079 36.2168925,49.1282538 39.2506357,51.2215586 C44.5156579,54.8568546 50.2891116,57.6049881 55.1299304,61.8652084 C60.2203707,66.3431938 63.9807727,72.3976755 63.2211883,79.4213649 C62.3972843,87.0331733 56.3573636,92.3277776 49.5831269,95 C63.8988417,91.8347391 78.693891,80.7080189 78.9948151,64.8073369 C79.2467337,51.7276323 70.2863948,41.6605997 59.1851307,35.8974938 Z" id="Path"></path>
        </g>
    </g>
</svg>