<?xml version="1.0" encoding="UTF-8"?>
<svg width="120px" height="120px" viewBox="0 0 120 120" version="1.1" xmlns="http://www.w3.org/2000/svg" xmlns:xlink="http://www.w3.org/1999/xlink">
    <g id="npm" stroke="none" stroke-width="1" fill="none" fill-rule="evenodd">
        <path d="M8,39 L113,39 L113,75.8535294 L60.5,75.8535294 L60.5,82 L37.1629032,82 L37.1629032,75.8535294 L8,75.8535294 L8,39 Z M13.8342742,69.7154902 L25.5028226,69.7154902 L25.5028226,51.2845098 L31.3370968,51.2845098 L31.3370968,69.7154902 L37.171371,69.7154902 L37.171371,45.1464706 L13.8342742,45.1464706 L13.8342742,69.7154902 Z M42.9971774,45.1464706 L42.9971774,75.8535294 L54.6657258,75.8535294 L54.6657258,69.7154902 L66.3342742,69.7154902 L66.3342742,45.1464706 L42.9971774,45.1464706 Z M54.6657258,51.2929412 L60.5,51.2929412 L60.5,63.5690196 L54.6657258,63.5690196 L54.6657258,51.2929412 Z M72.1685484,45.1464706 L72.1685484,69.7154902 L83.8370968,69.7154902 L83.8370968,51.2845098 L89.671371,51.2845098 L89.671371,69.7154902 L95.5056452,69.7154902 L95.5056452,51.2845098 L101.339919,51.2845098 L101.339919,69.7154902 L107.174194,69.7154902 L107.174194,45.1464706 L72.1685484,45.1464706 Z" id="original-wordmark" fill="#FFB944" fill-rule="nonzero"></path>
    </g>
</svg>