<?xml version="1.0" encoding="UTF-8"?>
<svg width="120px" height="120px" viewBox="0 0 120 120" version="1.1" xmlns="http://www.w3.org/2000/svg" xmlns:xlink="http://www.w3.org/1999/xlink">
    <g id="travis" stroke="none" stroke-width="1" fill="none" fill-rule="evenodd">
        <g id="travis-plain" transform="translate(13.000000, 13.000000)" fill="#FFB944" fill-rule="nonzero">
            <path d="M29.3495935,23.9430894 L43.2520325,23.9430894 L43.2520325,71.0569106 L37.0731707,71.0569106 L37.0731707,79.5528455 L58.699187,79.5528455 L58.699187,70.2845528 L53.2926829,70.2845528 L53.2926829,23.1707317 L67.9674797,23.1707317 L67.9674797,30.1219512 L75.6910569,30.1219512 L75.6910569,16.2195122 L20.8536585,16.2195122 L20.8536585,30.1219512 L29.3495935,30.1219512 L29.3495935,23.9430894 Z M92.8373984,4.45894451e-15 L3.11337398,4.45894451e-15 C1.54857724,4.45894451e-15 0,0.946910569 0,2.49085366 L0,92.2032927 C0,93.7480081 1.54857724,95 3.11337398,95 L92.8373984,95 C94.4021951,95 95,93.7480081 95,92.2032927 L95,2.49085366 C95,0.946910569 94.4021951,0 92.8373984,4.45894451e-15 Z M80.3252033,34.7560976 L64.1056911,34.7560976 L64.1056911,27.804878 L57.1544715,27.804878 L57.1544715,64.8780488 L64.1056911,64.8780488 L64.1056911,83.4146341 L33.2113821,83.4146341 L33.2113821,65.6504065 L37.8455285,65.6504065 L37.8455285,28.5772358 L33.2113821,28.5772358 L33.2113821,34.7560976 L15.4471545,34.7560976 L15.4471545,11.5853659 L80.3252033,11.5853659 L80.3252033,34.7560976 Z" id="Shape"></path>
        </g>
    </g>
</svg>