<?xml version="1.0" encoding="UTF-8"?>
<svg width="120px" height="120px" viewBox="0 0 120 120" version="1.1" xmlns="http://www.w3.org/2000/svg" xmlns:xlink="http://www.w3.org/1999/xlink">
    <g id="vagrant" stroke="none" stroke-width="1" fill="none" fill-rule="evenodd">
        <g id="vagrant-plain" transform="translate(14.000000, 13.000000)">
            <polygon id="Path" fill="#F1A629" points="92 15.7314409 92 7 70.6363636 19.1909197 70.6363636 26.5590579 53.553486 62.7377989 45 68.5141041 45 95 63.3197198 84.6373243"></polygon>
            <polygon id="Path" fill="#F1A629" points="46 50.8640674 33.004074 20.6003312 33.004074 12.0406443 32.9144469 12 20 19.4460334 20 27.0465151 37.3387653 66 46 61.724221"></polygon>
            <polygon id="Path" fill="#FFB944" points="79.4602632 0 58.5554606 12.2264011 58.5397368 12.2185485 58.5397368 12.2342536 58.5397368 12.2342536 58.5397368 12.2342536 58.5397368 20.5736485 45.9921381 49.8086461 45.9921381 59.5850554 37.6349342 64.4300711 20.9048026 26.8007109 20.9048026 19.4428831 33.4602632 12.2342536 12.5475987 0 0 7.31071251 0 16.2704579 28.2320971 84.7524384 45.9921381 95 45.9921381 69.2750868 54.3650658 64.4300711 54.2549991 64.3672508 71.0873355 26.8007109 71.0873355 19.4585882 71.0951974 19.4428831 92 7.31071251"></polygon>
        </g>
    </g>
</svg>