<?xml version="1.0" encoding="UTF-8"?>
<svg width="120px" height="120px" viewBox="0 0 120 120" version="1.1" xmlns="http://www.w3.org/2000/svg" xmlns:xlink="http://www.w3.org/1999/xlink">
    <g id="wordpress" stroke="none" stroke-width="1" fill="none" fill-rule="evenodd">
        <path d="M60.5718838,107.999949 C86.7823397,107.960309 108,86.7063175 108,60.4889197 C108,34.6976537 86.8802226,13.4566216 61.6485964,13.0076205 C35.1498446,12.5365123 13.0068845,33.9711713 13.0000021,59.9636874 C12.992355,86.7047929 34.1151912,108.038065 60.5718838,107.999949 Z M60.9939084,15.0000026 C86.0466079,14.9916458 106.007611,35.3031241 105.999998,60.7950323 C105.991623,84.8617334 85.501504,104.994681 61.01218,104.999999 C36.0630197,105.005317 15.9992387,84.8199496 16,59.7154912 C16.0015226,35.2583015 36.3774442,15.0083593 60.9939084,15.0000026 Z M41.7558635,39.1620775 C42.1644617,40.5190217 41.0206905,40.9912655 39.8047691,41.0858656 C38.5250516,41.1842497 37.2460937,41.2803635 35.7605582,41.3931268 C40.6637367,55.9494371 45.493246,70.2900591 50.4374362,84.9644304 C50.7898331,84.3900184 50.9348931,84.228063 50.9986891,84.0388627 C53.7130571,75.9547145 56.4426146,67.8758639 59.0878703,59.7690117 C59.3293838,59.0296171 59.2093865,58.0503167 58.9450888,57.2904885 C57.5453741,53.2643072 55.8684506,49.3259148 54.641137,45.2512983 C53.8019158,42.4617298 52.6885237,40.6567594 49.3794858,40.9799135 C48.8159544,41.0351599 48.127869,39.8265488 47.4967442,39.2021879 C48.2600178,38.7481073 49.0179751,37.912599 49.788084,37.901247 C56.526157,37.7990789 63.2665085,37.7990789 70.003822,37.9073014 C70.7769688,37.9201671 71.5349261,38.7776226 72.2981997,39.2430552 C71.6298606,39.8515232 71.0534182,40.7642252 70.2719171,40.9995903 C69.0180219,41.3764772 67.6274209,41.3053379 66.1266959,41.4385349 C71.0351907,55.988034 75.8426752,70.2401102 80.8218013,85 C83.0478261,77.6317855 85.1189178,70.8659847 87.1330487,64.0827774 C88.9299695,58.0276126 87.859108,52.3727956 84.6100687,47.039619 C83.6333823,45.4359577 82.4334099,43.8799749 81.8797517,42.1310078 C81.2509054,40.141378 80.7283857,37.8762726 81.0617958,35.8805884 C81.6276056,32.4984447 84.2318496,30.8191033 87.7558192,30.4974629 C68.471199,12.6626907 38.1665789,19.0470639 27,38.4249533 C31.2986354,38.2274283 35.4028449,37.9678455 39.5100923,37.9118422 C40.286277,37.9020038 41.5735892,38.5558799 41.7558635,39.1620775 Z M49.1668759,98.4285639 C49.0765486,98.6893634 49.0711902,98.9796447 49,99.4127987 C57.3767109,101.706323 65.5919042,101.540772 74,98.7430352 L61.1551487,64 C57.04449,75.8009905 53.1022383,87.1128873 49.1668759,98.4285639 Z M43,97 L23.7183855,44 C15.0198842,61.0257246 21.6369993,87.0022206 43,97 Z M100.914807,62.7605274 C101.521081,54.6981718 98.77395,43.5353223 96.4017718,42 C96.1371885,44.9657896 96.3216408,48.2652784 95.4810219,51.2716324 C93.5026948,58.3550861 91.0836475,65.315316 88.7538025,72.29468 C86.2213624,79.8809785 83.5891366,87.4328356 81,95 C93.1647841,87.6991826 99.8496701,76.9236079 100.914807,62.7605274 Z" id="Shape" fill="#FFB944"></path>
    </g>
</svg>